<svg class="scattered-rubies" version="1.1" xmlns="http://www.w3.org/2000/svg" xmlns:xlink="http://www.w3.org/1999/xlink" x="0px" y="0px"
   viewBox="0 0 1226.4 987.8" style="enable-background:new 0 0 1226.4 987.8;" xml:space="preserve">
<path class="scattered-ruby" data-rellax-speed="1" d="M249.9,305.5L361.1,60.6L238.6,5l-178,66.9L5,194.4L249.9,305.5z"/>
<path class="scattered-ruby" data-rellax-speed="3" d="M452.7,771.5l267.2-91.2l-45.6-133.6l-179.2-88l-133.6,45.6L452.7,771.5z"/>
<path class="scattered-ruby" data-rellax-speed="7" d="M756.8,283.5l92.4-131.2l-65.6-46.2l-111.8,19.4l-46.2,65.6L756.8,283.5z"/>
<path class="scattered-ruby" data-rellax-speed="3" d="M1029.7,965.4l73.8-180.6l-90.3-36.9L886,801.3l-36.9,90.3L1029.7,965.4z"/>
<path class="scattered-ruby" data-rellax-speed="1" d="M1039.8,596.3l181.6-137.2l-68.6-90.8l-159.4-22.2l-90.8,68.6L1039.8,596.3z"/>
<path class="scattered-ruby" data-rellax-speed="3" d="M184.4,982.8L304.9,877L252,816.7l-113.2-7.4l-60.3,52.9L184.4,982.8z"/>
</svg>
