<?xml version="1.0" encoding="utf-8"?>
<!-- Generator: Adobe Illustrator 21.0.2, SVG Export Plug-In . SVG Version: 6.00 Build 0)  -->
<svg version="1.1" id="Layer_1" xmlns="http://www.w3.org/2000/svg" xmlns:xlink="http://www.w3.org/1999/xlink" x="0px" y="0px"
	 viewBox="0 0 889.2 187" style="enable-background:new 0 0 889.2 187;" xml:space="preserve">
<style type="text/css">
	.st0{fill:#204056;}
</style>
<g>
	<path class="st0" d="M36.1,128.9c-1.6-4.9-2.4-11-2.4-19.2c0-8.2,0.8-14.4,2.4-19.2c4.5-13.9,16.3-21.5,31.9-21.5
		c11.5,0,20.7,4.7,26.7,12.1c0.5,0.6,0.6,1.6-0.2,2.3l-10.1,8.9c-0.8,0.7-1.6,0.5-2.2-0.3c-3.8-4.4-7.8-6.8-14.3-6.8
		c-6.9,0-12.2,3.4-14.4,10.2c-1.3,3.9-1.6,8.4-1.6,14.4c0,6,0.3,10.7,1.6,14.6c2.2,6.6,7.5,10,14.4,10c6.4,0,10.4-2.4,14.3-6.8
		c0.6-0.8,1.4-0.8,2.2-0.2l10.1,8.9c0.8,0.6,0.6,1.5,0.2,2.3c-6.1,7.3-15.2,12-26.7,12C52.4,150.4,40.5,142.8,36.1,128.9"/>
	<path class="st0" d="M385.9,128.9c-1.6-4.9-2.4-11-2.4-19.2c0-8.2,0.8-14.4,2.4-19.2c4.5-13.9,16.3-21.5,31.9-21.5
		c11.5,0,20.7,4.7,26.7,12.1c0.5,0.6,0.6,1.6-0.2,2.3l-10.1,8.9c-0.8,0.7-1.6,0.5-2.2-0.3c-3.8-4.4-7.8-6.8-14.3-6.8
		c-6.9,0-12.2,3.4-14.4,10.2c-1.3,3.9-1.6,8.4-1.6,14.4c0,6,0.3,10.7,1.6,14.6c2.2,6.6,7.5,10,14.4,10c6.4,0,10.4-2.4,14.3-6.8
		c0.6-0.8,1.4-0.8,2.2-0.2l10.1,8.9c0.8,0.6,0.6,1.5,0.2,2.3c-6.1,7.3-15.2,12-26.7,12C402.2,150.4,390.4,142.8,385.9,128.9"/>
	<path class="st0" d="M790.2,148.6c-1,0-1.6-0.6-1.6-1.6v-44.9c0-10-5-17-14.6-17c-9.3,0-14.7,7-14.7,17V147c0,1-0.6,1.6-1.6,1.6
		H743c-1,0-1.6-0.6-1.6-1.6v-44.9c0-10-5-17-14.6-17c-9.3,0-14.7,7-14.7,17V147c0,1-0.6,1.6-1.6,1.6h-14.7c-1,0-1.6-0.6-1.6-1.6
		V72.3c0-1,0.6-1.6,1.6-1.6h14.7c1,0,1.6,0.6,1.6,1.6V78h0.2c3.4-4.9,10.1-9.1,20.3-9.1c9.1,0,16.5,3.7,21.1,10.3h0.2
		c5.9-6.5,13.6-10.3,24.7-10.3c17.9,0,28,12.3,28,28.9V147c0,1-0.6,1.6-1.6,1.6L790.2,148.6L790.2,148.6z"/>
	<path class="st0" d="M828.8,177.7c-1,0-1.6-0.6-1.6-1.6v-12.9c0-1,0.6-1.6,1.6-1.6h2.9c6.1,0,9.1-2.7,11.5-9.2l2.2-6.6l-28.2-73.4
		c-0.3-1,0.3-1.6,1.3-1.6h15.8c1,0,1.6,0.6,1.9,1.6l17.5,50.9h0.3l16.7-50.9c0.3-1,1-1.6,1.9-1.6h15.2c1,0,1.6,0.6,1.3,1.6
		l-29.5,81.2c-6.7,18.4-13.1,24.3-25.9,24.3L828.8,177.7L828.8,177.7z"/>
	<path class="st0" d="M109.4,128.9c-1.8-5.5-2.6-10.7-2.6-19.2c0-8.6,0.8-13.7,2.6-19.2c4.3-13.6,16.2-21.5,31.8-21.5
		c15.5,0,27.4,7.9,31.7,21.5c1.8,5.5,2.6,10.7,2.6,19.2c0,8.6-0.8,13.7-2.6,19.2c-4.3,13.6-16.2,21.5-31.7,21.5
		C125.6,150.4,113.7,142.5,109.4,128.9 M155.7,124.1c1.3-4,1.6-7.8,1.6-14.4c0-6.6-0.3-10.2-1.6-14.4c-2.2-6.5-7.2-10.2-14.4-10.2
		c-7.2,0-12.3,3.7-14.6,10.2c-1.3,4.2-1.6,7.8-1.6,14.4c0,6.6,0.3,10.4,1.6,14.4c2.2,6.5,7.4,10.2,14.6,10.2
		C148.5,134.2,153.4,130.5,155.7,124.1"/>
	<path class="st0" d="M487.4,68.9c-12.7,0-21.1,3.1-27.4,7.6c-0.6,0.5-0.8,1.3-0.3,2.1l5.9,10.7c0.5,0.8,1.4,1,2.2,0.3
		c3.7-2.9,9-5.3,17.6-5.3c12.6,0,16.9,3.8,17.1,12.2l0,0v0.1c0,0.2,0,0.4,0,0.6v25.2c0,8.9-6.1,13.3-17.1,13.3
		c-8.7,0-13.3-3.2-13.3-9.7c0-7.3,5.1-10.5,16.6-10.5l3.5,0c1,0,1.6-0.6,1.6-1.6v-10.4c0-1-0.6-1.6-1.6-1.6h-0.8l-5.6,0
		c-19,0-30.9,7.8-30.9,24.7c0,16.3,11.9,23.8,25.9,23.8c10.9,0,18.1-3.7,21.8-9.1h0.2v5.7c0,1,0.6,1.6,1.6,1.6H518
		c1,0,1.6-0.6,1.6-1.6V96.1C519.6,77,510.9,68.9,487.4,68.9"/>
	<path class="st0" d="M296.1,101.9c-0.4,0-0.7,0.3-0.7,0.7v0.5v1.4v8.6v1.1v0.7c0,0.4,0.3,0.7,0.7,0.7h0.4h39.2
		c1.1,0,1.8-0.6,1.8-1.6c0-12.6-0.8-18-2.6-23.5c-4.3-13.3-15.9-21.5-31.7-21.5c-15.4,0-27.2,7.9-31.5,21.5
		c-1.6,5-2.6,11.2-2.6,19.2c0,8.1,1.1,14.1,2.7,19.1c4.3,13.6,15.8,21.7,32.2,21.7c14.2,0,25.1-5.5,31.7-13.3
		c0.6-0.8,0.6-1.6-0.2-2.3l-9.4-8.4c-0.8-0.6-1.6-0.5-2.4,0.3c-3.8,4.2-9.4,7.4-18.1,7.4c-8.6,0-14.7-4.2-17.3-11.8
		c-0.4-1.1-0.7-2.2-0.9-3.4l0,0c-0.6-3.3-0.9-6.5-0.9-11.2c0.1-4.4,0.4-7.3,1-10.9c0,0,0-0.1,0-0.1c0,0,0-0.1,0-0.1l0,0
		c0.2-0.9,0.4-1.6,0.6-2.4c2.1-6.3,7.8-10,15.2-10c7.2,0,13,3.7,15,10c0.6,2,1,3.9,1,6.6c0,0.6-0.3,1-1,1h-21l0,0L296.1,101.9
		L296.1,101.9z"/>
	<path class="st0" d="M254.3,38.7h-14.7c-1,0-1.6,0.6-1.6,1.6v37.8h0v31.2c0,0.1,0,0.2,0,0.3c0,0.1,0,0.2,0,0.2v4.1h-0.1
		c-0.2,4.5-0.7,7.4-1.5,10.1c-2.1,6.5-7,10-14.4,10c-7.2,0-12.1-3.6-14.2-10c-1.1-3.6-1.6-7.4-1.6-14.5c0-7.1,0.5-11,1.6-14.5
		c2-6.3,6.8-9.9,13.8-10h6.3c0.3-0.1,0.5-0.3,0.5-0.7l0.1-14.8c0-0.4-0.2-0.6-0.6-0.7l-5,0l-5.9,0v0c-12.9,0.1-22.3,6.4-26.3,18.7
		c-1.9,6-2.7,11.5-2.7,22c0,10.5,0.8,16,2.7,21.9c4,12.4,13.6,18.7,26.7,18.7c10.4,0,16.8-3.9,20.5-9.2h0.2v5.8c0,1,0.6,1.6,1.6,1.6
		h14.7c1,0,1.6-0.6,1.6-1.6V40.3C255.9,39.3,255.2,38.7,254.3,38.7"/>
	<path class="st0" d="M639.8,101.9c-0.4,0-0.7,0.3-0.7,0.7v0.5v1.4v8.6v1.1v0.7c0,0.4,0.3,0.7,0.7,0.7h0.4h39.2
		c1.1,0,1.8-0.6,1.8-1.6c0-12.6-0.8-18-2.6-23.5c-4.3-13.3-15.9-21.5-31.7-21.5c-15.4,0-27.2,7.9-31.5,21.5
		c-1.6,5-2.6,11.2-2.6,19.2c0,8.1,1.1,14.1,2.7,19.1c4.3,13.6,15.8,21.7,32.2,21.7c14.2,0,25.1-5.5,31.7-13.3
		c0.6-0.8,0.6-1.6-0.2-2.3l-9.4-8.4c-0.8-0.6-1.6-0.5-2.4,0.3c-3.8,4.2-9.4,7.4-18.1,7.4c-8.6,0-14.7-4.2-17.3-11.8
		c-0.4-1.1-0.7-2.2-0.9-3.4l0,0c-0.6-3.3-0.9-6.5-0.9-11.2c0.1-4.4,0.4-7.3,1-10.9c0,0,0-0.1,0-0.1c0,0,0-0.1,0-0.1v0
		c0.2-0.9,0.4-1.6,0.6-2.4c2.1-6.3,7.8-10,15.2-10c7.2,0,13,3.7,15,10c0.6,2,1,3.9,1,6.6c0,0.6-0.3,1-1,1h-21v0L639.8,101.9
		L639.8,101.9z"/>
	<path class="st0" d="M598.7,38.7H584c-1,0-1.6,0.6-1.6,1.6v37.8v31.3v0.2v0.3v4.2h-0.1c-0.2,4.5-0.7,7.4-1.5,10.1
		c-2.1,6.5-7.1,10-14.4,10c-7.2,0-12.2-3.6-14.3-10c-1.1-3.6-1.6-7.4-1.6-14.6c0-7.1,0.5-11,1.6-14.5c2-6.3,6.9-9.9,13.8-10l6.3,0
		c1,0,1.6-0.6,1.6-1.6v-13c0-1-0.6-1.6-1.6-1.6h-0.8l-9.5,0c-0.1,0-0.1,0-0.2,0c-0.1,0-0.1,0-0.2,0h-0.2v0
		C548.4,69,539,75.3,535,87.7c-1.9,6-2.7,11.5-2.7,22s0.8,16,2.7,22c4,12.5,13.6,18.8,26.7,18.8c10.4,0,16.8-3.9,20.5-9.2h0.2v5.8
		c0,1,0.6,1.6,1.6,1.6h14.7c1,0,1.6-0.6,1.6-1.6V40.3C600.3,39.3,599.7,38.7,598.7,38.7"/>
	<path class="st0" d="M384.7,170.7v14.7c0,1,0.6,1.6,1.6,1.6h54.6c1,0,1.6-0.6,1.6-1.6v-14.7c0-1-0.6-1.6-1.6-1.6h-54.6
		C385.3,169.1,384.7,169.7,384.7,170.7"/>
	<path class="st0" d="M370.8,0.5C370.8,0.5,370.8,0.5,370.8,0.5C370.8,0.4,370.8,0.4,370.8,0.5c-0.3-0.4-0.7-0.5-1.2-0.5h0H1.6
		C1.5,0,1.4,0,1.3,0c0,0-0.1,0-0.1,0c-0.1,0-0.1,0-0.2,0.1c0,0,0,0,0,0C0.3,0.4,0,0.9,0,1.6v0v183.8v0c0,0.6,0.2,1,0.6,1.3
		c0,0,0.1,0.1,0.1,0.1v0c0.3,0.2,0.6,0.3,0.9,0.3h368h0c0.5,0,1-0.2,1.3-0.6c0.2-0.3,0.3-0.6,0.3-1v0V1.6v0
		C371.2,1.2,371.1,0.8,370.8,0.5 M19.5,169.1c-0.1,0-0.2,0-0.3,0c0,0-0.1,0-0.1,0c-0.1,0-0.1,0-0.2-0.1c0,0,0,0,0,0
		c-0.6-0.2-0.9-0.8-0.9-1.5V34.3V19.5c0-0.7,0.4-1.2,0.9-1.5c0,0,0,0,0,0c0.1,0,0.3-0.1,0.3-0.1c0.1,0,0.2,0,0.3,0h332.1
		c0.1,0,0.2,0,0.3,0c0,0,0.1,0,0.1,0c0.1,0,0.2,0,0.2,0.1c0,0,0,0,0,0c0.6,0.2,0.9,0.8,0.9,1.5v147.9c0,0.7-0.4,1.2-0.9,1.5
		c0,0,0,0,0,0c-0.1,0-0.1,0-0.2,0.1c0,0-0.1,0-0.1,0c-0.1,0-0.2,0-0.3,0L19.5,169.1L19.5,169.1z"/>
</g>
</svg>
